<svg width="20" height="20" viewBox="0 0 20 20" fill="none" xmlns="http://www.w3.org/2000/svg">
<g clip-path="url(#clip0_335_1987)">
<path d="M1.87891 0.253906C1.71094 0.398438 1.66797 0.570312 1.6875 1.01953C1.70312 1.44922 1.76172 1.57422 1.98438 1.67578L2.10938 1.73438V2.875V4.01953L1.09375 4.80469C0.535156 5.23828 0.0625 5.625 0.0390625 5.66406C0.0195312 5.70312 0 5.80859 0 5.89062C0 6.01953 0.0390625 6.09766 0.21875 6.33203C0.761719 7.04297 0.816406 7.05078 1.5 6.52344L1.91406 6.20312V10.9336V15.6641L1.75 15.7656C1.40625 15.9766 1.14453 16.3008 0.996094 16.6875C0.949219 16.8164 0.898438 16.8828 0.816406 16.9141C0.652344 16.9844 0.410156 17.2383 0.3125 17.4531C0.265625 17.5508 0.214844 17.7422 0.207031 17.8711C0.195312 18 0.15625 18.1484 0.121094 18.2031C0.0703125 18.2812 0.0585938 18.4102 0.0585938 18.9062C0.0585938 19.5703 0.0820312 19.6484 0.300781 19.793C0.402344 19.8594 0.886719 19.8633 9.73438 19.8633H19.0586L19.1484 19.7773C19.2695 19.6562 19.2656 19.4297 19.1445 19.332C19.0664 19.2695 18.9844 19.2578 18.5703 19.2578H18.0859V16.4648C18.0859 14.9297 18.0938 13.6719 18.1094 13.6719C18.1211 13.6719 18.2461 13.7656 18.3906 13.8789C18.875 14.2656 18.9883 14.3359 19.1289 14.3359C19.332 14.3359 19.3867 14.2891 19.707 13.8594C19.9609 13.5156 20 13.4375 20 13.3008C19.9961 13.2109 19.9688 13.1094 19.9297 13.0664C19.832 12.9492 13.668 8.18359 13.5117 8.10156C13.3359 8.01172 12.9922 8.01172 12.8164 8.10156C12.7422 8.14062 12.4844 8.32812 12.2422 8.51953C11.9961 8.71094 11.7891 8.86719 11.7773 8.86719C11.7656 8.86719 11.7578 8.65625 11.7578 8.40234C11.7578 7.94531 11.7539 7.93359 11.6562 7.85547C11.5977 7.80859 11.5195 7.77344 11.4805 7.77344C11.375 7.77344 11.2188 7.85156 11.1836 7.92578C11.168 7.96094 11.1445 8.30469 11.1328 8.69141L11.1133 9.39453L8.82812 11.1602C7.57031 12.1328 6.49609 12.9805 6.43359 13.0469C6.35547 13.1328 6.32812 13.207 6.32812 13.3203C6.32812 13.4492 6.37109 13.5312 6.625 13.8672C6.94531 14.293 7 14.3359 7.19922 14.3359C7.36719 14.3359 7.12891 14.5117 10.4219 11.9609L13.1641 9.83984L13.8008 10.3281C14.1484 10.5977 15.1094 11.3438 15.9375 11.9844L17.4414 13.1484L17.4531 16.2031L17.4609 19.2578H16.3086H15.1562V18.9297C15.1562 18.5195 15.0938 18.418 14.8438 18.418C14.5938 18.418 14.5312 18.5195 14.5312 18.9297V19.2578H13.1641H11.7969V17.0312V14.8047H13.1641H14.5312V16.0938C14.5312 16.9648 14.5469 17.4102 14.5742 17.4766C14.6406 17.6172 14.8125 17.6797 14.9609 17.6172C15.0273 17.5898 15.0977 17.5352 15.1172 17.4961C15.1406 17.457 15.1562 16.8359 15.1562 15.9961C15.1562 14.4336 15.1562 14.4219 14.9258 14.2617C14.8164 14.1836 14.7695 14.1797 13.1836 14.1797C11.3906 14.1797 11.3984 14.1797 11.25 14.4258C11.1758 14.5469 11.1719 14.6406 11.1719 16.9023V19.2578H10.0781H8.98438V18.8086C8.98438 18.3164 8.94922 18.1953 8.76562 18.0508C8.6875 17.9883 8.60547 17.9688 8.44141 17.9688H8.22266L8.23438 17.6797C8.28125 16.6094 7.45703 15.7695 6.375 15.7734C5.875 15.7773 5.5 15.9219 5.13672 16.2539L4.98047 16.3945L4.62109 16.375L4.26172 16.3594L4.12109 16.1797C3.81641 15.7852 3.35938 15.5508 2.84375 15.5156L2.53906 15.4961V10.6094V5.71875L4.66016 4.08203C5.82422 3.17969 6.80469 2.44141 6.83594 2.44531C6.87109 2.44531 7.84766 3.18359 9.01562 4.08594L11.1328 5.72266V6.21875C11.1328 6.49219 11.1523 6.76172 11.1719 6.82031C11.2539 7.03516 11.4727 7.09375 11.6562 6.94922C11.75 6.875 11.7578 6.84766 11.7578 6.53906V6.20703L12.168 6.52344C12.8555 7.05469 12.9258 7.04297 13.4492 6.3125C13.707 5.96094 13.7383 5.78125 13.5859 5.60938C13.4375 5.44531 7.33594 0.742188 7.16797 0.660156C6.95312 0.5625 6.69531 0.566406 6.48047 0.675781C6.38672 0.722656 5.95312 1.03906 5.51953 1.37891C5.08594 1.71484 4.71875 1.99219 4.70703 1.99219C4.69531 1.99219 4.6875 1.93359 4.6875 1.85938C4.6875 1.76172 4.70703 1.71875 4.75781 1.70312C4.79688 1.6875 4.88281 1.625 4.94531 1.55859C5.05469 1.44531 5.05859 1.42578 5.07031 0.996094C5.08594 0.496094 5.03906 0.335938 4.84766 0.222656C4.74609 0.164062 4.58594 0.15625 3.36719 0.15625H2L1.87891 0.253906ZM4.45312 0.9375V1.13281H3.37891H2.30469V0.9375V0.742188H3.37891H4.45312V0.9375ZM9.90234 3.53906C11.5586 4.82031 12.9219 5.87891 12.9375 5.89062C12.9531 5.90625 12.918 5.97656 12.8594 6.04688L12.7539 6.17188L9.84766 3.92578C7.58203 2.17188 6.92188 1.67969 6.83594 1.67969C6.71875 1.67969 6.71484 1.68359 2.44141 4.99219L0.917969 6.17578L0.8125 6.04688C0.75 5.97656 0.714844 5.91016 0.734375 5.89062C0.882812 5.74219 6.79297 1.21094 6.83594 1.21094C6.86719 1.21094 8.25 2.25781 9.90234 3.53906ZM4.0625 2.11719L4.05859 2.51953L3.47266 2.96875C3.15234 3.21484 2.85156 3.44141 2.8125 3.47266C2.73438 3.52344 2.73438 3.51172 2.73438 2.62109V1.71875H3.39844H4.0625V2.11719ZM13.2852 8.70312C13.3359 8.74219 14.707 9.80078 16.3281 11.0547C17.9492 12.3086 19.2812 13.3359 19.2852 13.3398C19.3047 13.3516 19.1172 13.5938 19.0898 13.5938C19.0742 13.5938 17.7734 12.5977 16.1992 11.3789C13.6445 9.39844 13.3242 9.16016 13.1836 9.14844C13.0312 9.13672 12.9648 9.1875 10.1367 11.3789L7.24609 13.6211L7.14062 13.5C7.08203 13.4336 7.03516 13.3711 7.03516 13.3594C7.03516 13.332 13.1289 8.63281 13.1641 8.63281C13.1797 8.63281 13.2344 8.66406 13.2852 8.70312ZM3.20703 16.2422C3.43359 16.3516 3.64062 16.5586 3.78906 16.8203C3.92578 17.0625 4.02734 17.1055 4.28516 17.0391C4.53516 16.9727 4.71875 16.9805 4.91406 17.0742C5.18359 17.207 5.36719 17.5469 5.32031 17.8438L5.30469 17.9688H4.96094C4.63281 17.9688 4.60938 17.9727 4.53516 18.0703C4.39453 18.2461 4.45703 18.4805 4.66016 18.5547C4.73438 18.5781 5.41797 18.5938 6.56641 18.5938H8.35938V18.9258V19.2578H4.51172H0.664062V18.9258V18.5938H2.00781C2.84375 18.5938 3.39062 18.5781 3.46484 18.5547C3.66797 18.4805 3.73047 18.2461 3.58984 18.0703L3.51172 17.9688H2.16406C1.26562 17.9688 0.820312 17.957 0.820312 17.9297C0.820312 17.8477 0.941406 17.6055 1.00781 17.5508C1.04297 17.5234 1.16406 17.457 1.27734 17.4023C1.45703 17.3203 1.48438 17.293 1.52344 17.1406C1.65234 16.6406 1.90234 16.3477 2.33203 16.1875C2.55078 16.1055 2.98438 16.1328 3.20703 16.2422ZM6.66016 16.4258C7.13672 16.5078 7.56641 16.9883 7.60938 17.4844C7.61719 17.5977 7.61328 17.7539 7.60156 17.832L7.57422 17.9688H6.75391H5.92969L5.95312 17.8594C6.00781 17.6016 5.85938 17.1211 5.64062 16.8633C5.52734 16.7266 5.54297 16.6992 5.82031 16.5469C6.01172 16.4414 6.32031 16.3633 6.44531 16.3867C6.47656 16.3945 6.57422 16.4102 6.66016 16.4258Z" fill="#151515"/>
<path d="M5.21487 4.53125C5.07034 4.57422 4.92972 4.69922 4.87894 4.83203C4.8594 4.88672 4.84378 5.97266 4.84378 7.44531C4.84378 10.2031 4.83597 10.1016 5.07425 10.2695C5.18362 10.3477 5.2305 10.3516 6.81644 10.3516C8.6094 10.3516 8.60159 10.3516 8.75003 10.1055C8.82425 9.98438 8.82815 9.89063 8.82815 7.44141C8.82815 4.99219 8.82425 4.89844 8.75003 4.77734C8.58597 4.50391 8.63284 4.51172 6.89456 4.50391C6.03519 4.5 5.27737 4.51172 5.21487 4.53125ZM6.52347 5.70313V6.28906H5.99612H5.46878V5.70313V5.11719H5.99612H6.52347V5.70313ZM8.20315 5.70313V6.28906H7.67581H7.14847V5.70313V5.11719H7.67581H8.20315V5.70313ZM6.52347 7.44141V7.96875H5.99612H5.46878V7.44141V6.91406H5.99612H6.52347V7.44141ZM8.20315 7.44141V7.96875H7.67581H7.14847V7.44141V6.91406H7.67581H8.20315V7.44141ZM6.52347 9.16016V9.72656H5.99612H5.46878V9.16016V8.59375H5.99612H6.52347V9.16016ZM8.20315 9.16016V9.72656H7.67581H7.14847V9.16016V8.59375H7.67581H8.20315V9.16016Z" fill="#151515"/>
<path d="M12.0449 16.2899C11.9355 16.3915 11.9082 16.5673 11.9277 16.997C11.9394 17.2899 11.9589 17.3602 12.0293 17.4306C12.1347 17.5399 12.3535 17.5438 12.4668 17.4423C12.5371 17.3798 12.5449 17.3251 12.5449 16.872C12.5449 16.4071 12.5371 16.3641 12.4589 16.2899C12.3496 16.1884 12.1543 16.1884 12.0449 16.2899Z" fill="#151515"/>
</g>
<defs>
<clipPath id="clip0_335_1987">
<rect width="20" height="20" fill="white"/>
</clipPath>
</defs>
</svg>
