<svg width="13" height="13" viewBox="0 0 13 13" fill="none" xmlns="http://www.w3.org/2000/svg">
<path d="M10.0417 5.56658L7.70835 3.23325M1 12.2749L2.97421 12.0556C3.21542 12.0288 3.33602 12.0154 3.44874 11.9789C3.54875 11.9465 3.64393 11.9007 3.73168 11.8429C3.8306 11.7777 3.9164 11.6918 4.08801 11.5202L11.7917 3.81658C12.436 3.17225 12.436 2.12758 11.7917 1.48325C11.1473 0.838917 10.1027 0.838917 9.45835 1.48325L1.75468 9.18691C1.58307 9.35851 1.49727 9.44432 1.43204 9.54323C1.37417 9.63099 1.32843 9.72616 1.29605 9.82617C1.25956 9.9389 1.24616 10.0595 1.21936 10.3007L1 12.2749Z" stroke="black" stroke-linecap="round" stroke-linejoin="round"/>
</svg>
